<svg xmlns="http://www.w3.org/2000/svg" width="87.926" height="20.419" viewBox="0 0 87.926 20.419"><defs><style>.a{fill:#524f9c;}</style></defs><g transform="translate(-42.315 -42.286)"><path class="a" d="M145.919,56.973h0c0-1.681,0-.476,0,0" transform="translate(-54.738 -7.302)"/><path class="a" d="M146.972,48.053a3.953,3.953,0,0,0-3.311,3.149,4.727,4.727,0,0,0-.055.757c0,1.042,0,1.019,0,.731v.035h-2.067v2.337H143.6V65.539h2.24V55.062h3.524V52.725h-3.5v-.711a1.609,1.609,0,0,1,.362-1.111,1.449,1.449,0,0,1,1.2-.626c.559-.008,1.12,0,1.68,0h.256v-2.26c-.067-.005-.125-.015-.183-.014-.738.014-1.481-.02-2.214.053" transform="translate(-52.424 -3.019)"/><path class="a" d="M52.67,69.661a1.911,1.911,0,1,0,1.911-1.911,1.913,1.913,0,0,0-1.911,1.911" transform="translate(-5.471 -13.454)"/><path class="a" d="M102.3,63.338c-.56,0-1.12.006-1.68,0a1.448,1.448,0,0,1-1.2-.626,2.1,2.1,0,0,1-.363-1.29V55.085h3.5v-2.26c-.388,0-2.04.015-3.525.016V48.135h-2.24v4.708H94.457c-.079,0-.157-.019-.231-.019v2.26h2.566v.346c0,2.777,0,3.444,0,6.221a4.776,4.776,0,0,0,.055.757,3.953,3.953,0,0,0,3.311,3.149c.732.073,1.475.04,2.214.053.057,0,.115-.008.182-.014v-2.26H102.3" transform="translate(-27.427 -3.09)"/><path class="a" d="M219.384,58.049c-.738.014-3.9-.02-4.633.053a3.954,3.954,0,0,0-3.311,3.15,4.713,4.713,0,0,0-.055.757c0,2.749,0,6.17,0,8.876h2.264c0-2.6,0-5.971,0-8.643a2.1,2.1,0,0,1,.362-1.29,1.446,1.446,0,0,1,1.2-.626c.56-.008,3.539,0,4.1,0h.256v-2.26c-.067-.006-.125-.015-.183-.014" transform="translate(-89.325 -8.328)"/><path class="a" d="M120.582,68.769a2.446,2.446,0,1,1,2.7-2.433,2.581,2.581,0,0,1-2.7,2.433m5.214-2.433v0c0-1.495,0-2.99,0-4.327a4.717,4.717,0,0,0-.055-.757,3.954,3.954,0,0,0-3.311-3.15c-.732-.073-4.611-.04-5.35-.053-.058,0-.115.008-.182.014v2.26h.255c.56,0,4.256-.006,4.816,0a1.448,1.448,0,0,1,1.2.627,2.094,2.094,0,0,1,.362,1.29v.227a5.587,5.587,0,0,0-2.949-.826,4.722,4.722,0,1,0,0,9.392,5.586,5.586,0,0,0,2.95-.827v.677H125.8V66.336Z" transform="translate(-38.597 -8.328)"/><path class="a" d="M189.674,68.769a2.446,2.446,0,1,1,2.7-2.433,2.581,2.581,0,0,1-2.7,2.433m5.214-2.433v0c0-1.495,0-2.99,0-4.327a4.767,4.767,0,0,0-.055-.757,3.953,3.953,0,0,0-3.311-3.15c-.732-.073-4.611-.04-5.35-.053-.058,0-.115.008-.182.014v2.26h.255c.56,0,4.256-.006,4.816,0a1.447,1.447,0,0,1,1.2.627,2.1,2.1,0,0,1,.363,1.29v.227a5.59,5.59,0,0,0-2.95-.826,4.722,4.722,0,1,0,0,9.392,5.586,5.586,0,0,0,2.95-.827v.677h2.264V66.336Z" transform="translate(-75.101 -8.328)"/><path class="a" d="M76.9,63.023q-2.921-.6-2.921-2.118a1.373,1.373,0,0,1,.642-1.121,2.538,2.538,0,0,1,1.548-.474,2.425,2.425,0,0,1,1.606.536,1.621,1.621,0,0,1,.642,1.283h2.6a3.3,3.3,0,0,0-1.387-2.666,5.368,5.368,0,0,0-3.433-1.1,5.678,5.678,0,0,0-3.432,1.009,3.131,3.131,0,0,0-1.388,2.654,2.969,2.969,0,0,0,1.154,2.5,8.037,8.037,0,0,0,3.14,1.333q2.921.623,2.921,2.168a1.441,1.441,0,0,1-.686,1.208,2.837,2.837,0,0,1-1.68.486,2.689,2.689,0,0,1-1.738-.573,1.729,1.729,0,0,1-.716-1.4h-2.6a3.427,3.427,0,0,0,1.431,2.778A5.6,5.6,0,0,0,76.2,70.673a5.873,5.873,0,0,0,3.593-1.059,3.3,3.3,0,0,0,1.431-2.778q0-2.841-4.323-3.812" transform="translate(-15.247 -7.968)"/><path class="a" d="M166.459,63.023q-2.921-.6-2.921-2.118a1.373,1.373,0,0,1,.642-1.121,2.538,2.538,0,0,1,1.548-.474,2.425,2.425,0,0,1,1.606.536,1.621,1.621,0,0,1,.642,1.283h2.6a3.3,3.3,0,0,0-1.387-2.666,5.367,5.367,0,0,0-3.432-1.1,5.678,5.678,0,0,0-3.432,1.009,3.131,3.131,0,0,0-1.388,2.654,2.971,2.971,0,0,0,1.154,2.5,8.037,8.037,0,0,0,3.14,1.333q2.92.623,2.921,2.168a1.441,1.441,0,0,1-.686,1.208,2.837,2.837,0,0,1-1.68.486,2.689,2.689,0,0,1-1.738-.573,1.729,1.729,0,0,1-.716-1.4h-2.6a3.427,3.427,0,0,0,1.431,2.778,5.605,5.605,0,0,0,3.593,1.134,5.873,5.873,0,0,0,3.593-1.059,3.3,3.3,0,0,0,1.431-2.778q0-2.841-4.323-3.812" transform="translate(-62.566 -7.968)"/><path class="a" d="M44.683,48.887c0-2.355,1.584-4.271,3.531-4.271A3.409,3.409,0,0,1,51.1,46.435a4.628,4.628,0,0,1,.441,1.026l0,.012H53.94c-.044-.226-.1-.45-.162-.67a6.986,6.986,0,0,0-.663-1.542,5.71,5.71,0,0,0-4.9-2.974c-3.232,0-5.861,2.961-5.861,6.6L42.315,62.7H53.85v-2.33H44.645v-8.38H53.85v-2.26H44.683Z" transform="translate(0 0)"/></g></svg>